<?xml version="1.0" encoding="UTF-8" standalone="no"?>
<svg
   width="512px"
   height="512px"
   viewBox="0 0 512 512"
   version="1.1"
   id="svg65"
   sodipodi:docname="sync_off.svg"
   inkscape:version="1.1.2 (0a00cf5339, 2022-02-04)"
   xmlns:inkscape="http://www.inkscape.org/namespaces/inkscape"
   xmlns:sodipodi="http://sodipodi.sourceforge.net/DTD/sodipodi-0.dtd"
   xmlns="http://www.w3.org/2000/svg"
   xmlns:svg="http://www.w3.org/2000/svg">
  <defs
     id="defs69" />
  <sodipodi:namedview
     id="namedview67"
     pagecolor="#ffffff"
     bordercolor="#666666"
     borderopacity="1.0"
     inkscape:pageshadow="2"
     inkscape:pageopacity="0.0"
     inkscape:pagecheckerboard="0"
     showgrid="false"
     inkscape:zoom="1.0332031"
     inkscape:cx="257.4518"
     inkscape:cy="255.51607"
     inkscape:window-width="1920"
     inkscape:window-height="1007"
     inkscape:window-x="0"
     inkscape:window-y="0"
     inkscape:window-maximized="1"
     inkscape:current-layer="svg65" />
  <path
     fill="#000000"
     d="m 256,40.998 c -12.81,0 -23.002,10.192 -23.002,23.002 0,12.81 10.192,23.002 23.002,23.002 12.81,0 23.002,-10.192 23.002,-23.002 0,-12.81 -10.192,-23.002 -23.002,-23.002 z m -20.35,58.537 -116.252,377.819 17.204,5.292 13.15,-42.74 L 256,415.39 l 106.248,24.517 13.15,42.74 17.204,-5.292 L 276.35,99.535 c -5.26003,3.03951 -11.13496,4.86021 -17.192,5.328 L 308.812,266.244 256,283.848 203.187,266.244 252.842,104.864 c -6.05712,-0.46809 -11.93205,-2.28914 -17.192,-5.329 z m -37.757,183.915 29.65,9.885 -36.428,12.143 z m 116.214,0 6.778,22.028 -36.428,-12.143 z M 256,302.82 308.652,320.37 256,339.516 203.35,320.369 Z m -73.074,29.275 46.74,16.998 -58.518,21.28 z m 146.148,0 11.778,38.277 -58.52,-21.28 z M 256,358.666 320.354,382.068 256,396.92 191.645,382.068 Z m -92.16,35.455 52.144,12.033 -60.115,13.873 7.97,-25.906 z m 184.318,0 7.973,25.904 -60.113,-13.87 z"
     id="path63"
     sodipodi:nodetypes="ssssscccccccccccccccccccccccccccccccccccccccccccccccccc" />
</svg>
